# xmcd
#
# Track frame offsets: 
#        150
#        13700
#        26197
#        39050
#        51262
#        64337
#        76850
#        85557
#        97575
#        109510
#        121725
#        131817
#        146832
#        159522
#        172907
#        186532
#        200987
#        215377
#        239537
#        249565
#
# Disc length: 3500 seconds
#
# Revision: 6
# Processed by: cddbd v1.5.2PL0 Copyright (c) Steve Scherf et al.
# Submitted via: ExactAudioCopy v0.99pb5
#
DISCID=100daa14
DTITLE=Bobby Bare - The Essential Bobby Bare
DYEAR=1997
DGENRE=Country
TTITLE0=All American Boy
TTITLE1=Shame On Me
TTITLE2=Detroit City
TTITLE3=500 Miles Away From Home
TTITLE4=Miller's Cave
TTITLE5=Four Strong Winds
TTITLE6=A Dear John Letter
TTITLE7=It's Alright
TTITLE8=The Streets Of Baltimore
TTITLE9=The Game Of Triangles
TTITLE10=Charleston Railroad Tavern
TTITLE11=Margie's At The Lincoln Park Inn
TTITLE12=Bless America Again
TTITLE13=Your Husband, My Wife
TTITLE14=Ride Me Down Easy
TTITLE15=Daddy What If
TTITLE16=Marie Laveau
TTITLE17=The Winner
TTITLE18=Dropkick Me, Jesus
TTITLE19=Wages
EXTD=BMG Music
EXTT0=
EXTT1=
EXTT2=
EXTT3=
EXTT4=
EXTT5=
EXTT6=
EXTT7=
EXTT8=
EXTT9=
EXTT10=
EXTT11=
EXTT12=
EXTT13=
EXTT14=
EXTT15=
EXTT16=
EXTT17=
EXTT18=
EXTT19=
PLAYORDER=
